<?xml version="1.0" encoding="UTF-8" standalone="no"?>
<svg width="202px" height="202px" viewBox="0 0 202 202" version="1.1" xmlns="http://www.w3.org/2000/svg" xmlns:xlink="http://www.w3.org/1999/xlink" xmlns:sketch="http://www.bohemiancoding.com/sketch/ns">
    <!-- Generator: Sketch 3.1 (8751) - http://www.bohemiancoding.com/sketch -->
    <title>Imported Layers</title>
    <desc>Created with Sketch.</desc>
    <defs></defs>
    <g id="Verify" stroke="none" stroke-width="1" fill="none" fill-rule="evenodd" sketch:type="MSPage">
        <g id="LGCY-Landing-Page" sketch:type="MSArtboardGroup" transform="translate(-891.000000, -834.000000)" fill="#0DABE3">
            <g id="Group" sketch:type="MSLayerGroup" transform="translate(598.000000, 433.000000)">
                <path d="M443.846691,584.740434 C443.757687,586.157854 443.795889,587.597632 443.552042,588.987818 C443.132219,591.386905 441.997924,592.038098 439.816306,590.993019 C437.812697,590.033303 435.94808,588.778884 434.037133,587.629744 C429.673897,585.00587 428.54895,585.475769 427.437414,590.380037 C426.974105,592.422228 426.586794,594.493687 425.94629,596.481003 C425.023735,599.342266 423.632995,599.791028 421.297347,597.958584 C419.384367,596.457427 417.681502,594.692053 415.824608,593.115289 C412.832199,590.575151 411.610119,590.845871 409.842228,594.398569 C408.758328,596.576527 407.854469,598.852855 406.655554,600.963743 C405.21767,603.494939 403.604622,603.662818 401.692455,601.486892 C400.043237,599.609735 398.647213,597.512261 397.076838,595.562342 C394.683887,592.591733 393.241532,592.606367 390.832323,595.622095 C389.311937,597.525268 387.965089,599.574777 386.36464,601.405188 C384.374442,603.68233 382.760582,603.525832 381.266206,600.898705 C380.066479,598.789037 379.170341,596.508644 378.0775,594.335563 C376.305952,590.813759 375.105818,590.571492 372.087399,593.152686 C370.287402,594.692053 368.638996,596.416371 366.786572,597.885822 C364.36761,599.804848 362.905341,599.369094 361.989289,596.432224 C361.246368,594.051429 360.855807,591.562914 360.184008,589.157323 C359.213904,585.685516 358.090582,585.240006 354.922603,587.038306 C352.864535,588.20655 350.926764,589.59389 348.837808,590.699536 C345.931152,592.238496 344.508305,591.420237 344.271367,588.135415 C344.071819,585.370489 344.136438,582.583206 343.859672,579.828443 C343.642242,577.661866 342.782274,577.050916 340.687629,577.620404 C338.349543,578.255744 336.113466,579.257735 333.814395,580.04632 C329.394262,581.562517 328.226235,580.607678 328.854141,575.932669 C329.150821,573.722599 329.721423,571.54586 329.959987,569.331724 C330.25301,566.617609 329.233729,565.67212 326.5506,566.037146 C324.071895,566.374123 321.616356,566.878167 319.14009,567.234657 C315.772969,567.719189 314.626888,566.450136 315.625848,563.226693 C316.42526,560.647126 317.511192,558.156985 318.314261,555.578637 C319.020198,553.311251 318.254112,552.207639 315.887171,552.025939 C313.12154,551.813346 310.336807,551.84993 307.572395,551.626769 C304.607622,551.387754 303.831376,550.078459 305.173754,547.447267 C306.339342,545.162403 307.827215,543.044605 309.077744,540.800389 C310.699733,537.889128 310.190092,536.66804 306.990007,535.811978 C304.575516,535.165664 302.088276,534.777469 299.69695,534.060832 C296.675686,533.155178 296.203436,531.621096 298.176564,529.124451 C299.768885,527.109901 301.63147,525.310382 303.264838,523.325912 C305.244063,520.92154 304.998996,519.66021 302.256937,518.213522 C300.046464,517.047311 297.701469,516.135966 295.493028,514.966096 C292.394952,513.325108 292.198249,511.695094 294.825294,509.409823 C296.353402,508.080204 298.057892,506.954234 299.668908,505.718107 C303.628576,502.679615 303.641988,501.358938 299.73434,498.34199 C298.180628,497.142447 296.540351,496.048183 295.04313,494.783195 C292.166549,492.352808 292.314483,490.77198 295.607636,488.97368 C297.383249,488.003802 299.278753,487.254239 301.107605,486.379073 C305.267635,484.387692 305.517984,483.096689 302.419908,479.612687 C301.070215,478.094864 299.611197,476.667281 298.343599,475.085233 C296.122153,472.313397 296.593591,470.828499 300.022892,469.839516 C302.161837,469.222468 304.375155,468.867605 306.536452,468.320473 C310.22545,467.387179 310.769229,466.147393 308.904612,462.873951 C307.833311,460.993542 306.58766,459.211096 305.537492,457.319711 C303.674501,453.964159 304.327198,452.649579 308.156409,452.255287 C310.303888,452.033751 312.486318,452.166266 314.65168,452.095944 C318.412613,451.973591 319.227468,450.806973 317.996854,447.230292 C317.22711,444.9938 316.235466,442.828036 315.560416,440.565529 C314.684599,437.630691 315.713633,436.394157 318.759282,436.715689 C321.444444,436.99901 324.091809,437.646544 326.77819,437.910354 C329.445876,438.172945 330.263577,437.305908 329.967302,434.615369 C329.71614,432.334163 329.11018,430.092793 328.841949,427.812806 C328.314426,423.332911 329.434497,422.449208 333.665648,423.908091 C335.709086,424.612533 337.697658,425.481196 339.752069,426.149867 C342.666854,427.098608 343.665407,426.513673 343.981595,423.494693 C344.227474,421.145197 344.128716,418.76115 344.241699,416.395395 C344.425397,412.540677 345.937654,411.668355 349.303556,413.526408 C351.078355,414.506449 352.748707,415.67388 354.496277,416.705544 C358.153982,418.864398 359.409794,418.32377 360.418508,414.152805 C360.911079,412.115897 361.235395,410.034683 361.804372,408.020946 C362.761471,404.633282 364.314776,404.117449 367.042205,406.313293 C368.990949,407.881927 370.732016,409.707461 372.671819,411.287883 C375.063552,413.236583 376.331962,412.976837 377.775536,410.256625 C378.820421,408.288008 379.617394,406.189721 380.623263,404.199153 C382.654508,400.178995 384.30901,399.988353 387.115283,403.445119 C388.351587,404.968227 389.435893,406.614094 390.659598,408.148583 C393.319563,411.482997 394.655031,411.490314 397.274761,408.187199 C398.536669,406.596615 399.65674,404.891807 400.941813,403.321547 C403.624536,400.042415 405.301797,400.219237 407.19974,403.965423 C408.085311,405.713724 408.821729,407.536819 409.668284,409.305852 C411.530056,413.19634 412.793996,413.47763 416.012776,410.69116 C417.650209,409.273333 419.162873,407.704292 420.849888,406.351096 C423.678106,404.082898 425.217594,404.601169 426.193388,408.13273 C426.841208,410.476535 427.233802,412.891069 427.882028,415.234467 C428.685504,418.138412 429.858815,418.648553 432.472854,417.222189 C434.66829,416.024272 436.728391,414.577584 438.929923,413.393487 C442.014993,411.7338 443.506931,412.597991 443.70404,416.071831 C443.8536,418.705868 443.796702,421.357383 444.058431,423.978413 C444.300652,426.403515 445.333751,427.04983 447.67712,426.320185 C450.319609,425.497455 452.869029,424.374738 455.514769,423.565015 C458.342988,422.699604 459.404535,423.511359 459.185479,426.429937 C459.009503,428.781059 458.521402,431.11145 458.118242,433.441434 C457.448476,437.314038 458.295031,438.294078 462.223406,437.846129 C464.301795,437.609147 466.347265,437.095348 468.418339,436.775036 C472.236983,436.184816 473.394443,437.501022 472.210972,441.156155 C471.420908,443.59711 470.394312,445.963272 469.639606,448.41439 C468.953583,450.644785 469.574986,451.671165 471.880153,451.93213 C474.091033,452.182119 476.341334,452.074807 478.573753,452.14269 C483.706326,452.299188 484.559384,453.813352 481.969322,458.176992 C480.795606,460.154552 479.484115,462.059351 478.440856,464.101949 C477.439052,466.064063 477.910896,467.138408 480.010825,467.842851 C481.73401,468.420876 483.549857,468.716392 485.314497,469.175316 C486.619484,469.514733 487.954953,469.803745 489.193696,470.315919 C491.086355,471.098813 491.529344,472.35242 490.361316,474.01292 C489.200605,475.664071 487.799704,477.157911 486.417091,478.639557 C482.110754,483.254406 482.323307,484.364522 488.031358,486.963195 C489.873622,487.802184 491.750025,488.615565 493.458986,489.68422 C495.37034,490.879699 495.491857,492.252406 493.889376,493.855185 C492.701435,495.043753 491.285903,496.005502 489.965878,497.061149 C488.803541,497.990379 487.553825,498.826929 486.484149,499.85209 C484.848342,501.419505 484.819894,502.619861 486.517069,504.151099 C488.170351,505.642093 490.023182,506.912366 491.793918,508.272472 C496.214863,511.667453 496.030759,513.360066 490.971747,515.754275 C489.077056,516.650579 487.125061,517.441603 485.296208,518.455789 C483.107275,519.66956 482.869524,520.915443 484.362274,522.904385 C485.253128,524.090921 486.316301,525.1486 487.30632,526.260343 C488.026888,527.069659 488.794193,527.840765 489.470869,528.684632 C491.870323,531.67841 491.458628,533.116562 487.806206,534.181152 C485.733913,534.785192 483.592124,535.147372 481.499917,535.690032 C477.552034,536.71438 477.108639,537.827342 479.199627,541.395486 C480.362777,543.379144 481.693775,545.27378 482.735408,547.317191 C484.149721,550.091466 483.419399,551.363365 480.319291,551.626362 C477.759304,551.843426 475.179809,551.823102 472.612913,551.977567 C469.639606,552.156828 468.850354,553.228328 469.743647,556.044471 C470.49876,558.425267 471.526169,560.71948 472.290223,563.097837 C473.360711,566.431032 472.208534,567.746018 468.757286,567.229779 C466.283052,566.859876 463.8267,566.361116 461.347995,566.026577 C458.768501,565.67903 457.726868,566.608666 457.991442,569.191893 C458.259673,571.810076 458.92375,574.388831 459.173287,577.007828 C459.507357,580.512967 458.382003,581.402767 455.055117,580.345494 C452.738571,579.609752 450.517531,578.576056 448.207081,577.81877 C445.297987,576.865557 444.349015,577.477727 443.953577,580.479635 C443.76866,581.883642 443.78451,583.31407 443.709324,584.73271 C443.755248,584.735149 443.800766,584.737588 443.846691,584.740434 L443.846691,584.740434 Z M375.02516,520.034511 C374.035355,518.693619 373.456274,517.666345 372.653938,516.859376 C365.590695,509.756501 358.475807,502.704341 351.401178,495.612421 C348.02429,492.226719 343.996749,490.853369 339.353122,491.989781 C329.823092,494.322649 326.830089,505.716379 333.876658,512.800996 C344.377381,523.358139 354.946829,533.847527 365.48781,544.364909 C371.698698,550.561819 378.631403,550.545996 384.880923,544.311355 C407.689963,521.557164 430.496563,498.799728 453.30235,476.042292 C453.876958,475.468609 454.463358,474.902635 454.992014,474.28838 C458.74994,469.920439 459.008981,463.727992 455.643886,459.108101 C451.046211,452.797185 442.425469,452.240948 436.685084,457.958707 C416.73607,477.829472 396.810642,497.724174 376.887247,517.621311 C376.365505,518.14225 375.9743,518.793831 375.02516,520.034511 L375.02516,520.034511 Z" id="Imported-Layers" sketch:type="MSShapeGroup"></path>
            </g>
        </g>
    </g>
</svg>